HIERARCHY
ROOT hip
{
	OFFSET 0.000000 0.000000 0.000000 
	CHANNELS 6 Xposition Yposition Zposition Xrotation Zrotation Yrotation
	JOINT abdomen
	{
		OFFSET 0.000000 3.402643 0.000000 
		CHANNELS 3 Xrotation Zrotation Yrotation
		JOINT chest
		{
			OFFSET 0.000000 8.438565 -0.680529 
			CHANNELS 3 Xrotation Zrotation Yrotation
			JOINT neck
			{
				OFFSET 0.000000 10.207942 -0.272212 
				CHANNELS 3 Xrotation Zrotation Yrotation
				JOINT head
				{
					OFFSET 0.000000 3.130431 0.000000 
					CHANNELS 3 Xrotation Zrotation Yrotation
					End Site
					{
						OFFSET 0.000000 3.130435 0.000000 
					}
				}
			}
			JOINT lCollar
			{
				OFFSET 3.470700 6.669187 -0.816635 
				CHANNELS 3 Yrotation Zrotation Xrotation
				JOINT lShldr
				{
					OFFSET 3.198488 0.000000 0.000000 
					CHANNELS 3 Zrotation Yrotation Xrotation
					JOINT lForeArm
					{
						OFFSET 10.139888 0.000000 0.000000 
						CHANNELS 3 Yrotation Zrotation Xrotation
						JOINT lHand
						{
							OFFSET 8.370511 0.000000 0.000000 
							CHANNELS 3 Zrotation Yrotation Xrotation
							End Site
							{
								OFFSET 4.083176 0.000000 0.000000 
							}
						}
					}
				}
			}
			JOINT rCollar
			{
				OFFSET -3.470700 6.669187 -0.816635 
				CHANNELS 3 Yrotation Zrotation Xrotation
				JOINT rShldr
				{
					OFFSET -3.198488 0.000000 0.000000 
					CHANNELS 3 Zrotation Yrotation Xrotation
					JOINT rForeArm
					{
						OFFSET -10.139888 0.000000 0.000000 
						CHANNELS 3 Yrotation Zrotation Xrotation
						JOINT rHand
						{
							OFFSET -8.370511 0.000000 0.000000 
							CHANNELS 3 Zrotation Yrotation Xrotation
							End Site
							{
								OFFSET -4.083176 0.000000 0.000000 
							}
						}
					}
				}
			}
		}
	}
	JOINT lThigh
	{
		OFFSET 5.308129 -1.633274 1.361059 
		CHANNELS 3 Xrotation Zrotation Yrotation
		JOINT lShin
		{
			OFFSET -2.041588 -20.007561 0.000000 
			CHANNELS 3 Xrotation Zrotation Yrotation
			JOINT lFoot
			{
				OFFSET 0.000000 -19.190928 -1.224953 
				CHANNELS 3 Xrotation Yrotation Zrotation
				End Site
				{
					OFFSET 0.000000 -2.449906 4.627600 
				}
			}
		}
	}
	JOINT rThigh
	{
		OFFSET -5.308129 -1.633274 1.361059 
		CHANNELS 3 Xrotation Zrotation Yrotation
		JOINT rShin
		{
			OFFSET 2.041588 -20.007561 0.000000 
			CHANNELS 3 Xrotation Zrotation Yrotation
			JOINT rFoot
			{
				OFFSET 0.000000 -19.190928 -1.224953 
				CHANNELS 3 Xrotation Yrotation Zrotation
				End Site
				{
					OFFSET 0.000000 -2.449906 4.627600 
				}
			}
		}
	}
}
MOTION
Frames: 15
Frame Time: 0.033333
0.520036 51.115955 -1.733076 -11.464843 -4.658203 169.842957 12.177959 -5.180111 -2.043015 -13.925781 -4.394532 -2.070313 51.063168 8.107644 2.471410 -56.767582 4.853515 -29.863281 2.000000 -2.000000 0.000000 -92.958984 31.533205 -30.160906 -66.742653 -1.110821 -2.494168 23.876619 61.380955 17.831459 -2.000000 2.000000 0.000000 85.078125 -42.802734 12.923052 63.206345 1.382098 -2.449288 -28.161222 -62.371254 32.006828 -14.703761 23.761425 11.055779 41.321449 -4.191615 -3.415771 8.220546 -1.433896 -13.076777 -0.107347 10.094888 -5.062473 0.976175 5.618300 -0.065398 -6.190905 -17.012377 -8.599260 
1.024904 50.710537 -3.517684 -10.595702 -4.843750 168.407379 12.579705 -5.641747 -0.757010 -13.564452 -5.263672 -1.846599 51.063168 8.107644 2.471410 -57.148438 4.355468 -29.130856 2.000000 -2.000000 0.000000 -98.320313 33.164063 -41.601566 -68.665657 -0.864825 -2.469366 21.092144 61.636189 12.687371 -2.000000 2.000000 0.000000 83.710938 -42.099609 16.621094 64.262161 1.345368 -2.490532 -27.579519 -62.119041 31.590288 -15.359568 22.456758 11.933368 34.774967 -4.264698 -3.004321 0.102993 1.351510 -13.707871 3.875893 10.114867 -2.727408 -1.327047 5.795635 -0.601991 -7.256219 -16.830687 -8.403282 
1.560102 50.182243 -5.199232 -9.902344 -5.029297 167.148438 13.137115 -6.034947 0.347052 -13.193360 -5.957031 -1.787109 51.063168 8.107644 2.471410 -58.388672 4.443358 -28.524633 2.000000 -2.000000 0.000000 -103.359375 33.583984 -51.566860 -70.947838 -0.820481 -2.716544 18.713274 61.995598 8.543859 -2.000000 2.000000 0.000000 83.476563 -41.455082 18.294317 65.669838 1.289704 -2.542652 -25.700203 -61.810978 29.853872 -17.097860 19.557283 13.339129 30.580057 -4.488479 -2.703314 -8.946344 3.166441 -11.782903 8.241529 9.706291 -1.226873 -3.417491 5.409128 -0.300431 -7.296505 -16.753260 -8.182645 
2.171149 50.244301 -6.623068 -9.013672 -5.400390 165.877991 14.216624 -6.360672 1.216743 -12.656249 -6.474609 -1.729617 51.063168 8.107644 2.471410 -61.669922 5.546875 -28.084993 2.000000 -2.000000 0.000000 -105.136719 32.402344 -55.976563 -73.244690 -1.078484 -2.779804 17.152946 61.769890 5.458569 -2.000000 2.000000 0.000000 84.462891 -41.191406 17.161539 67.253281 1.243789 -2.594207 -19.681700 -61.263004 24.852537 -21.322447 13.284936 14.827900 30.765203 -4.571580 -2.778548 -7.329282 4.573899 -6.950461 15.642639 9.530040 0.784250 -14.813401 5.516336 -1.179356 -3.992622 -16.566278 -8.708813 
2.766110 50.273045 -7.814353 -8.124999 -5.595703 164.413116 16.356247 -6.866742 1.537029 -11.748047 -6.806641 -1.700376 51.063168 8.107644 2.471410 -66.865234 7.373046 -27.460939 2.000000 -2.000000 0.000000 -102.812500 29.423830 -53.242184 -76.235512 -0.995825 -2.872603 15.545633 60.959827 2.487324 -2.000000 2.000000 0.000000 86.367188 -40.205078 13.499556 68.999992 0.986913 -2.550437 -13.215979 -60.113136 19.694511 -23.505981 11.982702 13.245886 28.663383 -4.580880 -2.753235 -3.597468 3.460723 -6.333849 9.645533 9.577008 -1.084223 -0.213859 5.453189 -0.145336 -8.342320 -14.851708 -7.836564 
3.275429 50.102154 -8.913636 -7.246093 -5.761718 163.124008 19.026236 -7.280222 1.609188 -10.693360 -6.787110 -1.826172 51.063168 8.107644 2.471410 -71.103516 8.212890 -27.041018 2.000000 -2.000000 0.000000 -98.027344 25.429686 -45.615238 -79.549789 -0.134076 -2.687894 13.982733 60.348930 -0.316190 -2.000000 2.000000 0.000000 89.492188 -37.656250 7.578125 70.407379 0.930683 -2.592812 -7.836447 -59.253162 13.456289 -25.598669 11.938617 9.942965 25.486252 -4.707983 -2.373762 1.060574 2.117989 -6.183586 5.094279 8.840898 -3.024939 10.556708 5.321498 0.952774 -8.322239 -12.587638 -7.048350 
3.778209 50.328197 -9.939424 -6.386719 -5.791016 161.805649 21.522840 -7.612550 1.493911 -9.814453 -6.591797 -1.718750 51.063168 8.107644 2.471410 -72.382813 7.431640 -26.562500 2.000000 -2.000000 0.000000 -92.539063 20.683594 -36.865231 -83.079735 -0.377667 -2.840015 12.876591 59.238987 -1.869456 -2.000000 2.000000 0.000000 95.078125 -34.687500 -2.134463 70.935020 0.902001 -2.604254 -3.269848 -59.258278 4.067411 -25.794950 12.173825 8.994534 23.517088 -4.863044 -2.232201 3.165257 0.445516 -6.108562 -9.858279 6.197950 -7.700768 35.874935 4.280629 3.109073 10.730852 -6.134984 -3.355044 
4.353522 50.029369 -10.910235 -5.507813 -5.957031 160.672806 23.115953 -7.531426 1.304032 -9.101563 -6.562500 -1.982422 51.063168 8.107644 2.471410 -70.869141 5.566406 -25.673828 2.000000 -2.000000 0.000000 -88.671875 16.113281 -28.034397 -86.236282 -0.079956 -2.935512 13.865256 57.885239 -0.790763 -2.000000 2.000000 0.000000 101.230469 -31.757814 -12.304688 71.638435 0.873319 -2.615697 -0.314639 -60.251461 -5.231789 -25.824059 12.876606 8.869531 26.523424 -4.736276 -2.484694 0.683513 0.106875 -7.535055 -17.082838 3.222342 -9.798436 42.969963 4.000903 3.629444 39.217579 -0.255763 -4.366641 
5.080448 49.115578 -11.844607 -4.785156 -5.957031 159.375000 23.255114 -6.744357 0.652466 -8.759767 -6.738281 -2.226563 51.063168 8.107644 2.471410 -66.591797 3.310547 -23.974045 2.000000 -2.000000 0.000000 -87.480469 10.556643 -17.713053 -88.684441 0.189485 -2.843584 17.137920 55.496178 3.333916 -2.000000 2.000000 0.000000 103.720703 -30.644531 -15.268652 73.389168 0.908224 -2.711609 -1.329017 -59.811878 -9.212715 -25.283167 13.906267 9.629292 29.868517 -4.618613 -2.744985 -2.268181 -0.211806 -7.912607 -23.892412 -0.292220 -11.461574 55.193974 2.783000 3.975464 38.205574 -3.868498 -2.862423 
6.038058 50.130447 -12.761021 -3.896484 -5.800781 158.397461 22.674206 -5.716122 -0.168577 -8.750001 -7.080078 -2.460938 51.063168 8.107644 2.471410 -60.556641 1.484375 -21.298826 2.000000 -2.000000 0.000000 -88.203125 4.677734 -6.415217 -90.793831 0.091992 -2.837928 21.021320 52.329769 8.787552 -2.000000 2.000000 0.000000 99.941406 -31.162113 -6.201172 77.599174 0.646691 -2.756071 -13.030892 -56.984482 0.096820 -19.808319 14.446427 11.875773 25.288965 -4.815335 -2.369934 -1.763116 -1.143656 -8.486855 -29.439192 -4.783991 -12.285726 64.665932 1.982288 4.327822 19.934769 -13.884350 1.856454 
7.305428 50.910149 -13.678038 -3.203125 -5.800781 157.451172 21.744740 -4.515290 -0.894060 -8.740235 -7.255859 -2.851624 51.063168 8.107644 2.471410 -52.333981 0.468750 -17.607344 2.000000 -2.000000 0.000000 -88.623047 0.244141 2.500002 -93.277931 -0.345105 -3.291755 24.617950 48.935925 14.741039 -2.000000 2.000000 0.000000 92.851563 -30.585939 8.950109 83.227562 0.419488 -2.886551 -26.448875 -51.808922 12.060533 -13.210771 14.517603 14.534132 18.574318 -4.930801 -1.853410 1.050788 -2.129568 -9.251170 -30.268646 -7.878459 -13.629146 65.017265 1.992124 4.360437 4.551468 -21.971846 3.333581 
8.918704 51.480522 -14.601346 -2.656250 -5.292969 157.186600 20.653206 -3.818286 -1.277797 -8.740235 -7.255859 -3.017642 51.063168 8.107644 2.471410 -43.183594 0.234375 -14.335938 2.000000 -2.000000 0.000000 -84.941406 -2.304688 9.619140 -97.317627 -0.182360 -3.183832 25.347734 44.684055 19.578728 -2.000000 2.000000 0.000000 88.652344 -28.984379 19.458157 87.966141 0.219268 -2.976358 -31.919939 -47.465599 20.239048 -8.708898 15.626037 16.579308 14.546583 -5.149367 -1.467664 7.480048 -2.381084 -5.446339 -23.108669 -8.452217 -16.547602 48.519562 3.261417 3.810997 2.643583 -22.275068 2.591182 
10.809861 53.102615 -15.520838 -2.314453 -4.580078 157.655197 19.591347 -3.526916 -1.053747 -8.378906 -7.246094 -3.251953 51.063168 8.107644 2.471410 -36.992188 0.400391 -12.783190 2.000000 -2.000000 0.000000 -78.642578 -4.238281 15.087892 -101.338272 0.330240 -3.115703 24.033438 40.654541 23.731203 -2.000000 2.000000 0.000000 88.671875 -28.554688 21.064451 91.658394 0.064972 -3.014618 -25.993395 -48.004196 23.745464 -3.975016 16.764772 18.588531 9.269534 -5.172691 -1.009527 15.093251 -2.430699 -1.128014 -11.844988 -7.089074 -20.276257 22.668612 4.724957 2.058830 5.422341 -17.964897 2.822620 
12.901802 53.282104 -16.431070 -1.943359 -3.691406 158.300156 18.003893 -3.353257 -0.487371 -8.037109 -7.246094 -3.477794 51.063168 8.107644 2.471410 -35.351563 1.103516 -13.935549 2.000000 -2.000000 0.000000 -72.812500 -3.476563 17.441408 -104.502556 0.466167 -3.133344 24.305084 38.120857 28.203442 -2.000000 2.000000 0.000000 90.039063 -28.417971 19.214104 94.647774 -0.059514 -3.060931 -15.564070 -51.356289 26.366762 -1.828060 18.897493 18.931623 8.194677 -5.220757 -0.932331 23.968964 -1.889089 2.221633 -2.869918 -4.583597 -22.261660 4.667576 5.214573 0.090624 4.377399 -14.862304 4.974458 
15.117214 53.192467 -17.326838 -1.767578 -2.988281 158.271484 16.779280 -3.519034 0.482987 -7.685547 -6.875000 -3.437500 51.063168 8.107644 2.471410 -37.011719 2.275391 -16.718750 2.000000 -2.000000 0.000000 -69.707031 0.615234 15.830078 -105.909058 0.514351 -3.145909 26.375313 38.007679 29.935053 -2.000000 2.000000 0.000000 89.765625 -25.156250 20.644531 96.757324 0.038749 -3.407261 -11.510251 -54.923557 31.058580 -5.312279 18.614262 16.986048 14.213058 -5.077910 -1.617245 23.314342 2.073471 2.995827 0.936302 -1.921982 -23.105824 2.937128 5.208635 -0.239070 1.574884 -14.973266 3.319869 
